<svg width="34" height="36" viewBox="0 0 34 36" fill="none" xmlns="http://www.w3.org/2000/svg">
<path d="M29.4187 11.1023C31.9008 10.5187 33.75 8.28984 33.75 5.625C33.75 2.51719 31.2328 0 28.125 0C25.0734 0 22.5914 2.42578 22.5 5.44922L9.57656 10.6242C8.55703 9.61875 7.16484 9 5.625 9C2.51719 9 0 11.5172 0 14.625C0 17.7328 2.51719 20.25 5.625 20.25C6.48281 20.25 7.29844 20.0602 8.02266 19.7156L18.2602 28.6734C18.0914 29.2078 18 29.7844 18 30.375C18 33.4828 20.5172 36 23.625 36C26.7328 36 29.25 33.4828 29.25 30.375C29.25 28.4273 28.2656 26.7117 26.7609 25.7063L29.4187 11.1023ZM10.9898 16.3266C11.1445 15.8414 11.2359 15.3281 11.25 14.8008L24.1734 9.63281C24.4266 9.87891 24.6938 10.1039 24.9891 10.3008L22.3313 24.8977C21.9445 24.9891 21.5719 25.1156 21.2203 25.2844L10.9898 16.3266Z" fill="#2563EB"/>
</svg>
